<svg xmlns="http://www.w3.org/2000/svg" xmlns:xlink="http://www.w3.org/1999/xlink" viewBox="0 0 162.34 142.19"><defs><style>.cls-1,.cls-2,.cls-3,.cls-4,.cls-5,.cls-6{stroke-miterlimit:10;}.cls-1{fill:url(#linear-gradient);stroke:url(#linear-gradient-2);}.cls-2{fill:url(#linear-gradient-3);stroke:url(#linear-gradient-4);}.cls-3{fill:url(#linear-gradient-5);stroke:url(#linear-gradient-6);}.cls-4{fill:url(#linear-gradient-7);stroke:url(#linear-gradient-8);}.cls-5{fill:url(#linear-gradient-9);stroke:url(#linear-gradient-10);}.cls-6{fill:url(#linear-gradient-11);stroke:url(#linear-gradient-12);}</style><linearGradient id="linear-gradient" x1="36.29" y1="91.96" x2="36.29" y2="34.14" gradientUnits="userSpaceOnUse"><stop offset="0" stop-color="#f9b233"/><stop offset="1" stop-color="#fcea10"/></linearGradient><linearGradient id="linear-gradient-2" x1="17.16" y1="44.3" x2="69.21" y2="74.36" gradientUnits="userSpaceOnUse"><stop offset="0" stop-color="#f9b233" stop-opacity="0"/><stop offset="1" stop-color="#fcea10" stop-opacity="0"/></linearGradient><linearGradient id="linear-gradient-3" x1="81.17" y1="85.48" x2="81.17" y2="40.62" xlink:href="#linear-gradient"/><linearGradient id="linear-gradient-4" x1="63.91" y1="53.08" x2="98.43" y2="73.01" xlink:href="#linear-gradient-2"/><linearGradient id="linear-gradient-5" x1="81.17" y1="45.44" x2="81.17" y2="0.58" xlink:href="#linear-gradient"/><linearGradient id="linear-gradient-6" x1="63.91" y1="13.05" x2="98.43" y2="32.97" xlink:href="#linear-gradient-2"/><linearGradient id="linear-gradient-7" x1="43.84" y1="141.69" x2="43.84" y2="83.87" xlink:href="#linear-gradient"/><linearGradient id="linear-gradient-8" x1="13.57" y1="100.36" x2="83.13" y2="140.52" xlink:href="#linear-gradient-2"/><linearGradient id="linear-gradient-9" x1="118.5" y1="141.69" x2="118.5" y2="83.87" xlink:href="#linear-gradient"/><linearGradient id="linear-gradient-10" x1="74.15" y1="93.8" x2="161.24" y2="144.08" xlink:href="#linear-gradient-2"/><linearGradient id="linear-gradient-11" x1="126.05" y1="91.96" x2="126.05" y2="34.14" xlink:href="#linear-gradient"/><linearGradient id="linear-gradient-12" x1="93.13" y1="51.74" x2="145.18" y2="81.79" xlink:href="#linear-gradient-2"/></defs><g id="Layer_2" data-name="Layer 2"><g id="Layer_1-2" data-name="Layer 1"><path class="cls-1" d="M58.26,92h-3A55,55,0,0,1,7.78,64.55l-.87-1.5.87-1.5A55,55,0,0,1,55.26,34.14h3v3a48.73,48.73,0,0,0,6.53,24.4l.88,1.51-.88,1.5A48.74,48.74,0,0,0,58.26,89ZM13.88,63.05A49,49,0,0,0,52.35,85.87a54.76,54.76,0,0,1,6.41-22.82,54.76,54.76,0,0,1-6.41-22.82A49,49,0,0,0,13.88,63.05Z"/><path class="cls-2" d="M81.17,85.48l-1.5-.86A54.88,54.88,0,0,1,59.6,64.55l-.86-1.5.86-1.5A54.73,54.73,0,0,1,79.67,41.48l1.5-.86,1.5.86a54.88,54.88,0,0,1,20.07,20.07l.86,1.5-.86,1.5A55,55,0,0,1,82.67,84.62ZM65.7,63.05A48.83,48.83,0,0,0,81.17,78.52,49,49,0,0,0,96.64,63.05,48.83,48.83,0,0,0,81.17,47.58,48.63,48.63,0,0,0,65.7,63.05Z"/><path class="cls-3" d="M81.17,45.44l-1.5-.86A54.73,54.73,0,0,1,59.6,24.51L58.74,23l.86-1.5A54.88,54.88,0,0,1,79.67,1.44l1.5-.86,1.5.86a55,55,0,0,1,20.07,20.07l.86,1.5-.86,1.5A54.88,54.88,0,0,1,82.67,44.58ZM65.7,23A48.63,48.63,0,0,0,81.17,38.48,48.83,48.83,0,0,0,96.64,23,49,49,0,0,0,81.17,7.54,48.83,48.83,0,0,0,65.7,23Z"/><path class="cls-4" d="M55.32,141.69a54.75,54.75,0,0,1-25.91-6.51A54.75,54.75,0,0,1,3.5,141.69H.5v-3A54.78,54.78,0,0,1,27.91,91.21l1.5-.87,1.5.87a54.7,54.7,0,0,1,17.17,15.57,48.69,48.69,0,0,0,4.24-19.91v-3h3a54.8,54.8,0,0,1,27.35,7.3l4.5,2.6-4.5,2.6a49.16,49.16,0,0,0-17,16.4,49.1,49.1,0,0,0,17,16.41l4.5,2.6-4.5,2.6A54.8,54.8,0,0,1,55.32,141.69ZM29.41,128.28l1.51.87a48.82,48.82,0,0,0,44.24,2.33,55.3,55.3,0,0,1-15.62-17.2l-.87-1.51.87-1.5A55.15,55.15,0,0,1,75.16,94.08,48.65,48.65,0,0,0,58.23,90,54.61,54.61,0,0,1,51,114.28l-2.61,4.49-2.59-4.5a48.78,48.78,0,0,0-16.37-17A48.78,48.78,0,0,0,6.6,135.59a48.66,48.66,0,0,0,21.3-6.44Z"/><path class="cls-5" d="M161.84,141.69h-3a54.75,54.75,0,0,1-25.91-6.51,54.82,54.82,0,0,1-53.26-.8l-4.5-2.6,4.5-2.6a49.1,49.1,0,0,0,17-16.41,49.16,49.16,0,0,0-17-16.4l-4.5-2.6,4.5-2.6A54.8,54.8,0,0,1,107,83.87h3v3a48.69,48.69,0,0,0,4.24,19.91,54.7,54.7,0,0,1,17.17-15.57l1.5-.87,1.5.87a54.83,54.83,0,0,1,27.41,47.48ZM87.18,131.48a48.82,48.82,0,0,0,44.24-2.33l1.51-.87,1.5.87a48.74,48.74,0,0,0,21.31,6.44,48.66,48.66,0,0,0-6.44-21.31h0a48.86,48.86,0,0,0-16.37-17,48.78,48.78,0,0,0-16.37,17l-2.59,4.5-2.61-4.49A54.75,54.75,0,0,1,104.1,90a48.65,48.65,0,0,0-16.92,4.13,55.15,55.15,0,0,1,15.62,17.19l.87,1.5-.87,1.51A55.3,55.3,0,0,1,87.18,131.48Z"/><path class="cls-6" d="M107.08,92h-3V89a48.64,48.64,0,0,0-6.54-24.41l-.87-1.5.87-1.51a48.64,48.64,0,0,0,6.54-24.4v-3h3a55,55,0,0,1,47.48,27.41l.86,1.5-.86,1.5A55,55,0,0,1,107.08,92Zm-3.5-28.91A54.76,54.76,0,0,1,110,85.87a49,49,0,0,0,38.47-22.82A49,49,0,0,0,110,40.23,54.76,54.76,0,0,1,103.58,63.05Z"/></g></g></svg>